<svg width="1160" height="700" viewBox="0 0 1160 700" fill="none" xmlns="http://www.w3.org/2000/svg">
<path fill-rule="evenodd" clip-rule="evenodd" d="M0 0H1160V700H0V0Z" fill="#CD718E"/>
<path opacity="0.1" fill-rule="evenodd" clip-rule="evenodd" d="M0 11.785C0 11.785 2.017 -0.0269538 12.968 4.62172e-05C21.024 0.0180462 23.287 5.12405 23.287 5.12405C23.287 5.12405 28.024 2.43205 32.579 4.26505C38.519 6.65605 39.226 11.644 39.226 11.644C39.226 11.644 16.829 11.785 0 11.785Z" transform="translate(1034 222)" fill="white"/>
<path opacity="0.1" fill-rule="evenodd" clip-rule="evenodd" d="M60 18C60 18 56.9154 -0.039376 40.1643 6.45794e-05C27.8408 0.0282364 24.3799 7.82621 24.3799 7.82621C24.3799 7.82621 17.1329 3.71499 10.1661 6.51528C1.07962 10.1663 0 17.7859 0 17.7859C0 17.7859 34.2583 18 60 18Z" transform="translate(1034 586)" fill="white"/>
<path opacity="0.1" fill-rule="evenodd" clip-rule="evenodd" d="M61.653 9.34543C61.653 9.34543 55.306 -0.96457 40.669 0.07343C28.173 0.95743 23.669 9.69843 23.669 9.69843C23.669 9.69843 17.42 5.30643 10.338 8.15643C1.099 11.8744 0 19.6314 0 19.6314L102.845 21.7684C102.845 21.7684 95.919 9.49143 82.669 14.0734C77.919 6.32343 66.169 6.07343 61.653 9.34543Z" transform="translate(876 289)" fill="white"/>
<path opacity="0.1" fill-rule="evenodd" clip-rule="evenodd" d="M90.5207 13.7212C90.5207 13.7212 81.2019 -1.41621 59.7114 0.107812C41.3644 1.40573 34.7515 14.2395 34.7515 14.2395C34.7515 14.2395 25.5765 7.79105 15.1786 11.9755C1.61358 17.4344 0 28.8234 0 28.8234L151 31.961C151 31.961 140.831 13.9356 121.377 20.663C114.403 9.28424 97.1512 8.91719 90.5207 13.7212Z" transform="translate(476 71) scale(-1 1)" fill="white"/>
<path opacity="0.2" fill-rule="evenodd" clip-rule="evenodd" d="M44.9603 8.89319C44.9603 8.89319 40.229 -0.717394 29.5556 0.0428364C20.4422 0.691369 18.076 9.00033 18.076 9.00033C18.076 9.00033 12.7029 5.93206 7.53855 8.02127C0.801588 10.7465 0 16.4339 0 16.4339L75 18C75 18 66.6916 2.51273 44.9603 8.89319Z" transform="translate(979 328)" fill="white"/>
<path opacity="0.2" fill-rule="evenodd" clip-rule="evenodd" d="M66.5413 13.3398C66.5413 13.3398 59.539 -1.07609 43.7422 0.0642545C30.2544 1.03705 26.7524 13.5005 26.7524 13.5005C26.7524 13.5005 18.8004 8.89808 11.1571 12.0319C1.18635 16.1197 0 24.6509 0 24.6509L111 27C111 27 98.7036 3.7691 66.5413 13.3398Z" transform="translate(57 559) scale(-1 1)" fill="white"/>
</svg>
