<svg width="139" height="29" viewBox="0 0 139 29" fill="none" xmlns="http://www.w3.org/2000/svg">
<path fill-rule="evenodd" clip-rule="evenodd" d="M27.844 8.20605H26.749C24.7051 8.20605 23.2029 9.94397 23.2029 11.856V15.496C23.2029 17.408 24.7051 19.146 26.749 19.146H27.843V22.851C27.843 25.609 26.0339 27.353 23.2271 27.353H4.61694C1.81006 27.353 0 25.609 0 22.851V19.147H1.09399C3.13794 19.147 4.64111 17.4091 4.64111 15.496V11.856C4.64111 9.94397 3.13794 8.20605 1.09399 8.20605H0V4.50195C0 1.74402 1.80908 0 4.61694 0H23.228C26.0349 0 27.844 1.74402 27.844 4.50195V8.20605ZM14.8872 24.6179C18.4561 24.6179 21.3472 21.7699 21.3472 18.256V11.8309C21.3472 8.31799 18.4561 5.47095 14.8882 5.47095H12.9561C9.38818 5.47095 6.49609 8.31799 6.49609 11.8309V18.257C6.49609 21.7699 9.38818 24.6179 12.9561 24.6179H14.8872Z" transform="translate(0.855957 0.823975)" fill="white"/>
<path fill-rule="evenodd" clip-rule="evenodd" d="M5.41309 0H7.46509C10.4409 0.000976562 12.9939 2.66895 12.9939 5.59399V11.731C12.9939 14.656 10.4409 17.324 7.46509 17.324H5.41309C2.43604 17.324 0 14.656 0 11.731V5.59302C0 2.66797 2.43604 0 5.41309 0ZM7.05884 12.765C9.10498 12.765 11.137 11.027 11.137 9.11401V5.474C11.137 3.56201 9.10498 1.82397 7.05884 1.82397H5.93384C3.88892 1.82397 1.85596 3.56201 1.85596 5.47498V9.11499C1.85596 11.027 3.88892 12.765 5.93384 12.765H7.05884Z" transform="translate(8.28101 7.20593)" fill="white"/>
<path d="M3.78 4.127H3.676C2.256 4.127 0.928001 3.314 0.928001 1.867V0.5C0.928001 0.5 0.926001 0 0.460001 0C-0.00399941 0 5.81913e-07 0.5 5.81913e-07 0.5V1.867C5.81913e-07 3.815 1.747 5.039 3.676 5.039H3.78C3.78 5.039 4.234 5.032 4.234 4.592C4.234 4.15 3.78 4.127 3.78 4.127Z" transform="translate(11.0659 14.02)" fill="white"/>
<path fill-rule="evenodd" clip-rule="evenodd" d="M6.55298 8.52905H6.48096H6.55298ZM6.48096 8.52905C5.98706 9.14001 5.49097 9.55396 4.99902 9.771L6.48096 8.52905ZM4.99902 9.771C4.76709 9.87329 4.50806 9.95154 4.22168 10.0057L4.99902 9.771ZM4.22168 10.0057C3.90063 10.0665 3.54517 10.097 3.15503 10.097L4.22168 10.0057ZM3.15503 10.097C2.16992 10.097 1.39795 9.84705 0.839111 9.349L3.15503 10.097ZM0.839111 9.349C0.281006 8.84998 0 8.14001 0 7.22095L0.839111 9.349ZM0 7.22095C0 5.24902 1.60498 4.21704 4.81299 4.12097L0 7.22095ZM4.81299 4.12097L6.49902 4.06897L4.81299 4.12097ZM6.49902 4.06897V3.46399V4.06897ZM6.49902 3.46399C6.49902 2.698 6.33203 2.13196 5.99609 1.76697L6.49902 3.46399ZM5.99609 1.76697C5.66089 1.40198 5.12598 1.21997 4.38696 1.21997L5.99609 1.76697ZM4.38696 1.21997C3.56006 1.21997 2.62305 1.46899 1.57788 1.96704L4.38696 1.21997ZM1.57788 1.96704L1.11499 0.837036L1.57788 1.96704ZM1.11499 0.837036C1.62476 0.567505 2.16528 0.360962 2.7251 0.222046L1.11499 0.837036ZM2.7251 0.222046C2.93677 0.167725 3.15088 0.123291 3.36621 0.0888672L2.7251 0.222046ZM3.36621 0.0888672C3.73364 0.0301514 4.10522 0.000366211 4.47803 0L3.36621 0.0888672ZM4.47803 0C5.66309 0 6.54004 0.258057 7.11108 0.774048L4.47803 0ZM7.11108 0.774048C7.68188 1.29102 7.96704 2.11902 7.96704 3.25806L7.11108 0.774048ZM7.96704 3.25806V9.91797V3.25806ZM7.96704 9.91797L6.85303 9.91895L7.96704 9.91797ZM5.66089 8.12C5.12598 8.62402 4.39087 8.87708 3.45386 8.87708C2.86182 8.87708 2.40186 8.73706 2.07178 8.45898C1.74194 8.17908 1.57788 7.77307 1.57788 7.23901C1.57788 6.55505 1.84277 6.052 2.37085 5.729C2.8999 5.40503 3.76196 5.22205 4.95776 5.18103L6.46289 5.11902V6.00098C6.46289 6.91003 6.19482 7.61499 5.66089 8.12Z" transform="translate(40.5159 9.96692)" fill="white"/>
<path d="M3.77 9.76L0 0H1.613L3.751 5.789C4.235 7.142 4.519 8.019 4.603 8.424H4.677C4.743 8.108 4.952 7.458 5.306 6.47C5.66 5.482 6.453 3.324 7.686 0H9.299L5.529 9.76H3.769H3.77Z" transform="translate(49.896 10.126)" fill="white"/>
<path fill-rule="evenodd" clip-rule="evenodd" d="M0.25293 0.236457C0.0839844 0.392463 0 0.641487 0 0.980476C0 1.31153 0.0830078 1.55848 0.25293 1.72352C0.357666 1.82447 0.484863 1.89661 0.622314 1.93555C0.707764 1.95985 0.797363 1.9712 0.887939 1.96851C1.12036 1.97181 1.34473 1.88392 1.51294 1.72352C1.57642 1.6637 1.62842 1.59315 1.66895 1.51173C1.73999 1.36842 1.77588 1.19154 1.77588 0.980476C1.77588 0.647468 1.68799 0.40052 1.51294 0.240486C1.45117 0.184089 1.38525 0.137702 1.31519 0.101203C1.18628 0.0340648 1.04346 0.000495471 0.887939 0.000495471C0.653564 -0.00731703 0.425537 0.0775218 0.25293 0.236457ZM1.62988 13.3826H0.125V3.62452H1.62988V13.3826Z" transform="translate(60.5898 6.50244)" fill="white"/>
<path fill-rule="evenodd" clip-rule="evenodd" d="M6.55396 8.52905L6.85303 9.91895L7.96802 9.91797V3.25806C7.96802 2.11902 7.68311 1.29102 7.11108 0.774048C6.54004 0.258057 5.66309 0 4.479 0C3.88745 0.000488281 3.2981 0.0750732 2.7251 0.222046C2.37256 0.309448 2.02783 0.423706 1.6936 0.563599C1.49683 0.645996 1.30371 0.737183 1.11499 0.837036L1.57788 1.96704C2.62402 1.46899 3.56006 1.21997 4.38794 1.21997C5.12598 1.21997 5.66089 1.40198 5.99609 1.76697C6.33203 2.13196 6.49902 2.698 6.49902 3.46399V4.06897L4.81396 4.12097C1.60498 4.21704 0 5.24902 0 7.22095C0 8.14001 0.281006 8.84998 0.840088 9.349C1.39795 9.84705 2.1709 10.097 3.15503 10.097C3.89307 10.097 4.50806 9.98804 4.99902 9.771C5.49194 9.55396 5.98706 9.14001 6.48193 8.52905H6.55396ZM5.66089 8.12C5.12695 8.62402 4.39185 8.87708 3.45386 8.87708C2.86182 8.87708 2.40186 8.73706 2.07178 8.45898C1.74292 8.17908 1.57788 7.77307 1.57788 7.23901C1.57788 6.55505 1.84277 6.052 2.37085 5.729C2.8999 5.40503 3.76196 5.22205 4.95898 5.18103L6.46289 5.11902V6.00098C6.46289 6.91003 6.1958 7.61499 5.66089 8.12Z" transform="translate(64.592 9.96692)" fill="white"/>
<path d="M7.042 7.275C7.042 8.183 6.698 8.884 6.009 9.377C5.32 9.869 4.353 10.115 3.109 10.115C1.791 10.115 0.763 9.911 0.026 9.501V8.129C0.503 8.367 1.016 8.553 1.563 8.691C2.08006 8.82317 2.61133 8.89167 3.145 8.895C3.929 8.895 4.535 8.772 4.957 8.526C5.38 8.28 5.592 7.903 5.592 7.4C5.592 7.02 5.424 6.694 5.089 6.424C4.753 6.154 4.099 5.835 3.126 5.468C2.202 5.128 1.545 4.833 1.155 4.582C0.765 4.329 0.475 4.043 0.285 3.722C0.095 3.402 0 3.019 0 2.574C0 1.778 0.329 1.15 0.988 0.69C1.646 0.23 2.549 0 3.698 0C4.768 0 5.812 0.214 6.833 0.642L6.299 1.844C5.302 1.44 4.398 1.238 3.589 1.238C2.876 1.238 2.339 1.348 1.975 1.568C1.613 1.786 1.432 2.09 1.432 2.476C1.432 2.736 1.499 2.96 1.636 3.144C1.771 3.327 1.99 3.502 2.293 3.669C2.594 3.835 3.175 4.075 4.033 4.39C5.211 4.812 6.007 5.236 6.421 5.663C6.834 6.091 7.042 6.628 7.042 7.275Z" transform="translate(74.9329 9.948)" fill="white"/>
<path fill-rule="evenodd" clip-rule="evenodd" d="M6.55396 8.52905L6.85205 9.91895L7.96704 9.91797V3.25806C7.96704 2.11902 7.68188 1.29102 7.11011 0.774048C6.54004 0.258057 5.66309 0 4.47803 0C4.08911 0.000366211 3.70142 0.0328369 3.3186 0.0966797C3.11914 0.130005 2.92114 0.171753 2.7251 0.222046C2.16528 0.360962 1.62476 0.567505 1.11499 0.837036L1.57788 1.96704C2.62305 1.46899 3.56006 1.21997 4.38696 1.21997C5.12598 1.21997 5.66089 1.40198 5.99609 1.76697C6.33203 2.13196 6.49902 2.698 6.49902 3.46399V4.06897L4.81299 4.12097C1.60498 4.21704 0 5.24902 0 7.22095C0 8.14001 0.281006 8.84998 0.839111 9.349C1.39795 9.84705 2.16992 10.097 3.15503 10.097C3.56934 10.097 3.94458 10.0627 4.28125 9.99414C4.54395 9.94055 4.7832 9.86621 4.99902 9.771C5.49097 9.55396 5.98608 9.14001 6.48096 8.52905H6.55396ZM5.66089 8.12C5.12598 8.62402 4.39087 8.87708 3.45386 8.87708C2.86182 8.87708 2.40186 8.73706 2.07178 8.45898C1.74194 8.17908 1.57788 7.77307 1.57788 7.23901C1.57788 6.55505 1.84277 6.052 2.37085 5.729C2.8999 5.40503 3.76196 5.22205 4.95776 5.18103L6.46289 5.11902V6.00098C6.46289 6.91003 6.19482 7.61499 5.66089 8.12Z" transform="translate(83.585 9.96692)" fill="white"/>
<path d="M0 13.854H1.504V0H0V13.854Z" transform="translate(94.5601 6.03101)" fill="white"/>
<path fill-rule="evenodd" clip-rule="evenodd" d="M1.27295 8.797C2.12207 9.67395 3.28101 10.114 4.74902 10.114C5.41992 10.114 5.99194 10.066 6.46704 9.96704C6.98462 9.85522 7.49023 9.69287 7.97607 9.48206V8.16394C6.97363 8.59436 5.89478 8.81873 4.80396 8.82397C3.78906 8.82397 3.00195 8.526 2.44312 7.93396C1.88403 7.33899 1.58911 6.46899 1.55908 5.32397H8.4021V4.38904C8.4021 3.07202 8.03906 2.01001 7.31396 1.20605C6.59009 0.401001 5.604 0 4.36011 0C3.03003 0 1.97095 0.462036 1.18311 1.38904C0.39502 2.31494 0 3.56396 0 5.13696C0 6.69702 0.424072 7.91699 1.27295 8.797ZM2.43384 2.00305C2.90796 1.49207 3.54492 1.23706 4.34204 1.23706C5.12695 1.23706 5.73096 1.48401 6.15405 1.9801C6.5769 2.4751 6.78906 3.19006 6.78906 4.12305H1.59595C1.67993 3.21912 1.95898 2.51306 2.43384 2.00305Z" transform="translate(98.627 9.94897)" fill="white"/>
<path d="M7.043 7.275C7.043 8.183 6.698 8.884 6.01 9.377C5.321 9.869 4.355 10.115 3.11 10.115C1.792 10.115 0.765 9.911 0.027 9.501V8.129C0.505 8.367 1.017 8.553 1.564 8.691C2.08107 8.82311 2.61233 8.89161 3.146 8.895C3.931 8.895 4.536 8.772 4.958 8.526C5.381 8.28 5.593 7.903 5.593 7.4C5.593 7.02 5.425 6.694 5.09 6.424C4.754 6.154 4.1 5.835 3.127 5.468C2.203 5.128 1.546 4.833 1.156 4.582C0.766 4.329 0.476 4.043 0.286 3.722C0.096 3.402 0 3.019 0 2.574C0 1.778 0.33 1.15 0.989 0.69C1.648 0.23 2.551 0 3.698 0C4.768 0 5.814 0.214 6.834 0.642L6.299 1.844C5.303 1.44 4.399 1.238 3.589 1.238C2.877 1.238 2.339 1.348 1.976 1.568C1.613 1.786 1.432 2.09 1.432 2.476C1.432 2.736 1.5 2.96 1.637 3.144C1.772 3.327 1.992 3.502 2.294 3.669C2.596 3.835 3.176 4.075 4.034 4.39C5.212 4.812 6.009 5.236 6.422 5.663C6.836 6.091 7.042 6.628 7.042 7.275" transform="translate(108.866 9.948)" fill="white"/>
<path d="M0 1.211C0 0.812 0.093 0.511 0.277 0.307C0.461 0.102 0.725 0 1.069 0C1.419 0 1.694 0.102 1.889 0.307C2.086 0.511 2.185 0.812 2.185 1.211C2.185 1.596 2.085 1.893 1.885 2.101C1.685 2.308 1.413 2.412 1.069 2.412C0.761 2.412 0.507 2.319 0.303 2.132C0.101 1.946 0 1.638 0 1.211Z" transform="translate(118.046 17.731)" fill="white"/>
<path d="M4.531 0.000325088C4.9292 -0.00382027 5.32683 0.0316882 5.718 0.106325L5.511 1.47833C5.15403 1.3958 4.78934 1.35122 4.423 1.34533C3.619 1.34533 2.931 1.66533 2.361 2.30533C1.79 2.94633 1.504 3.74533 1.504 4.70132V9.93633H0V0.177325H1.241L1.414 1.98533H1.486C1.854 1.34933 2.298 0.859325 2.818 0.515325C3.32427 0.175414 3.92122 -0.00405455 4.531 0.000325088Z" transform="translate(123.111 9.94861)" fill="white"/>
<path d="M1.523 0V6.33C1.523 7.125 1.708 7.72 2.076 8.11C2.445 8.503 3.022 8.699 3.807 8.699C4.847 8.699 5.607 8.419 6.087 7.862C6.567 7.304 6.807 6.393 6.807 5.128V0H8.311V9.758H7.071L6.853 8.45H6.771C6.463 8.93 6.036 9.298 5.488 9.554C4.942 9.808 4.318 9.936 3.618 9.936C2.408 9.936 1.504 9.654 0.902 9.091C0.302 8.527 0 7.624 0 6.384V0L1.523 0Z" transform="translate(130.485 10.127)" fill="white"/>
</svg>
