<svg width="815" height="678" viewBox="0 0 815 678" fill="none" xmlns="http://www.w3.org/2000/svg">
<path fill-rule="evenodd" clip-rule="evenodd" d="M88.796 6C55.9536 6 -9.73122 5.01389 1.21625 18.0139C12.1637 31.0139 87 43 176 24C265 5 425.807 23.8075 455 30C484.193 36.1925 621.573 32 617.923 19C614.274 6 524.385 0 413.571 0C302.756 0 121.638 6 88.796 6Z" transform="translate(82 644)" fill="#CD718E"/>
<path fill-rule="evenodd" clip-rule="evenodd" d="M109 0C109 0 89.13 146.71 86.7137 214.009C86.5439 218.737 78 217 78 226C78 235 86.0732 236.049 86 240C84 348 109 509 109 509C109 509 46 546 30 542C20 530 0 524 0 542C0 560 25 566 30 564C35 562 50 576 73 570C96 564 112 557 121 561C130 565 142 572 157 564C172 556 156 525 149 509C142 493 116 356 116 270C116 184 149 0 149 0H109Z" transform="translate(94 93)" fill="#E1B2A1"/>
<mask id="mask0" mask-type="alpha" maskUnits="userSpaceOnUse" x="94" y="93" width="164" height="572">
<path fill-rule="evenodd" clip-rule="evenodd" d="M109 0C109 0 89.13 146.71 86.7137 214.009C86.5439 218.737 78 217 78 226C78 235 86.0732 236.049 86 240C84 348 109 509 109 509C109 509 46 546 30 542C20 530 0 524 0 542C0 560 25 566 30 564C35 562 50 576 73 570C96 564 112 557 121 561C130 565 142 572 157 564C172 556 156 525 149 509C142 493 116 356 116 270C116 184 149 0 149 0H109Z" transform="translate(94 93)" fill="white"/>
</mask>
<g mask="url(#mask0)">
<path fill-rule="evenodd" clip-rule="evenodd" d="M0 0H58C58 0 81 45 53 59C25 73 0 52 0 52V0Z" transform="translate(189 79)" fill="#CC9B8A"/>
<path fill-rule="evenodd" clip-rule="evenodd" d="M5 0L29 26L48 118L0 148L5 0Z" transform="translate(152 222)" fill="#CC9B8A"/>
<path fill-rule="evenodd" clip-rule="evenodd" d="M0.932641 29.1268C4.93264 39.1268 27.9326 52.1268 46.9326 52.1268C54.9326 57.1268 74.9326 65.1268 95.9326 54.1268C116.933 43.1268 134 29.1268 134 29.1268C134 29.1268 153 35.1268 161 29.1268C169 23.1268 166 4.12678 166 4.12678C166 4.12678 179.13 -0.723318 180 0.126779C192.761 12.5959 179.081 26.0062 195.933 29.1268C222.933 34.1268 211.933 63.1268 187.933 70.1268C163.933 77.1268 78.9326 87.1268 41.9326 77.1268C4.93264 67.1268 -3.06736 19.1268 0.932641 29.1268Z" transform="translate(77 596.873)" fill="#CC9B8A"/>
</g>
<path fill-rule="evenodd" clip-rule="evenodd" d="M2.29859 0C2.29859 0 -0.828455 12.7182 0.298591 13C1.42564 13.2818 6.29859 1 6.29859 1L2.29859 0Z" transform="translate(185.704 462) rotate(12)" fill="#9D796C"/>
<path fill-rule="evenodd" clip-rule="evenodd" d="M2.29859 0C2.29859 0 -0.828455 12.7182 0.298591 13C1.42564 13.2818 6.29859 1 6.29859 1L2.29859 0Z" transform="translate(188.704 189.276) rotate(12)" fill="#9D796C"/>
<path fill-rule="evenodd" clip-rule="evenodd" d="M2.29859 0C2.29859 0 -0.828455 12.7182 0.298591 13C1.42564 13.2818 6.29859 1 6.29859 1L2.29859 0Z" transform="translate(199 340.049) rotate(-40)" fill="#9D796C"/>
<path fill-rule="evenodd" clip-rule="evenodd" d="M2.55012 0C2.55012 0 -0.846232 15.8652 0.280814 16.147C1.40786 16.4287 6.55012 1 6.55012 1L2.55012 0Z" transform="translate(202 494.912) rotate(-8)" fill="#9D796C"/>
<path fill-rule="evenodd" clip-rule="evenodd" d="M2.55012 0C2.55012 0 -0.846232 15.8652 0.280814 16.147C1.40786 16.4287 6.55012 1 6.55012 1L2.55012 0Z" transform="translate(213.341 231.058) rotate(-45)" fill="#9D796C"/>
<path fill-rule="evenodd" clip-rule="evenodd" d="M2.55012 0C2.55012 0 -0.846232 15.8652 0.280814 16.147C1.40786 16.4287 6.55012 1 6.55012 1L2.55012 0Z" transform="translate(182 355.912) rotate(-8)" fill="#9D796C"/>
<path fill-rule="evenodd" clip-rule="evenodd" d="M2.55012 0C2.55012 0 -0.846232 15.8652 0.280814 16.147C1.40786 16.4287 6.55012 1 6.55012 1L2.55012 0Z" transform="translate(229 578.297) rotate(-41)" fill="#9D796C"/>
<path fill-rule="evenodd" clip-rule="evenodd" d="M2.55012 0C2.55012 0 -0.846232 15.8652 0.280814 16.147C1.40786 16.4287 6.55012 1 6.55012 1L2.55012 0Z" transform="translate(229 137.554) rotate(-41)" fill="#9D796C"/>
<path fill-rule="evenodd" clip-rule="evenodd" d="M2.55012 0C2.55012 0 -0.846232 15.8652 0.280814 16.147C1.40786 16.4287 6.55012 1 6.55012 1L2.55012 0Z" transform="translate(209 439.297) rotate(-41)" fill="#9D796C"/>
<path fill-rule="evenodd" clip-rule="evenodd" d="M2.55012 0C2.55012 0 -0.846232 15.8652 0.280814 16.147C1.40786 16.4287 6.55012 1 6.55012 1L2.55012 0Z" transform="translate(214.968 166.978) rotate(-41)" fill="#9D796C"/>
<path fill-rule="evenodd" clip-rule="evenodd" d="M2.30994 0C2.30994 0 -0.829309 10.0701 0.297737 10.3519C1.42478 10.6336 6.30994 1 6.30994 1L2.30994 0Z" transform="translate(205 571.204) rotate(-11)" fill="#9D796C"/>
<path fill-rule="evenodd" clip-rule="evenodd" d="M2.30994 0C2.30994 0 -0.829309 10.0701 0.297737 10.3519C1.42478 10.6336 6.30994 1 6.30994 1L2.30994 0Z" transform="translate(197 224.204) rotate(-11)" fill="#9D796C"/>
<path fill-rule="evenodd" clip-rule="evenodd" d="M2.30994 0C2.30994 0 -0.829309 10.0701 0.297737 10.3519C1.42478 10.6336 6.30994 1 6.30994 1L2.30994 0Z" transform="translate(185 432.204) rotate(-11)" fill="#9D796C"/>
<path fill-rule="evenodd" clip-rule="evenodd" d="M1.67544 0C1.67544 0 -0.601513 7.30404 0.215954 7.50841C1.03342 7.71278 4.57672 0.725319 4.57672 0.725319L1.67544 0Z" transform="translate(194.411 154) rotate(27)" fill="#9D796C"/>
<path fill-rule="evenodd" clip-rule="evenodd" d="M1.90082 0C1.90082 0 -0.68243 8.2866 0.245005 8.51845C1.17244 8.75031 5.19238 0.82289 5.19238 0.82289L1.90082 0Z" transform="translate(201.468 549) rotate(24)" fill="#9D796C"/>
<path fill-rule="evenodd" clip-rule="evenodd" d="M1.90082 0C1.90082 0 -0.68243 8.2866 0.245005 8.51845C1.17244 8.75031 5.19238 0.82289 5.19238 0.82289L1.90082 0Z" transform="translate(204.018 278.721) rotate(-23)" fill="#9D796C"/>
<path fill-rule="evenodd" clip-rule="evenodd" d="M1.90082 0C1.90082 0 -0.68243 8.2866 0.245005 8.51845C1.17244 8.75031 5.19238 0.82289 5.19238 0.82289L1.90082 0Z" transform="translate(181.468 410) rotate(24)" fill="#9D796C"/>
<path fill-rule="evenodd" clip-rule="evenodd" d="M3.24534 0C3.24534 0 -1.16513 11.0554 0.418304 11.3647C2.00174 11.6741 8.86512 1.09784 8.86512 1.09784L3.24534 0Z" transform="translate(194.112 126.506) rotate(24)" fill="#9D796C"/>
<path fill-rule="evenodd" clip-rule="evenodd" d="M1.7124 0C1.7124 0 -0.568244 10.6535 0.188566 10.8427C0.945377 11.0319 4.3984 0.671499 4.3984 0.671499L1.7124 0Z" transform="translate(190.99 526) rotate(16)" fill="#9D796C"/>
<path fill-rule="evenodd" clip-rule="evenodd" d="M1.7124 0C1.7124 0 -0.568244 10.6535 0.188566 10.8427C0.945377 11.0319 4.3984 0.671499 4.3984 0.671499L1.7124 0Z" transform="translate(193.99 251) rotate(16)" fill="#9D796C"/>
<path fill-rule="evenodd" clip-rule="evenodd" d="M1.7124 0C1.7124 0 -0.568244 10.6535 0.188566 10.8427C0.945377 11.0319 4.3984 0.671499 4.3984 0.671499L1.7124 0Z" transform="translate(208 472.708) rotate(-38)" fill="#9D796C"/>
<path fill-rule="evenodd" clip-rule="evenodd" d="M1.7124 0C1.7124 0 -0.568244 10.6535 0.188566 10.8427C0.945377 11.0319 4.3984 0.671499 4.3984 0.671499L1.7124 0Z" transform="translate(213.968 200.388) rotate(-38)" fill="#9D796C"/>
<path fill-rule="evenodd" clip-rule="evenodd" d="M0.37321 0C0.37321 0 -0.376663 7.0909 0.380148 7.28011C1.13696 7.46931 2.84701 1.37125 2.84701 1.37125L0.37321 0Z" transform="translate(203.008 593) rotate(16)" fill="#9D796C"/>
<path fill-rule="evenodd" clip-rule="evenodd" d="M0.37321 0C0.37321 0 -0.376663 7.0909 0.380148 7.28011C1.13696 7.46931 2.84701 1.37125 2.84701 1.37125L0.37321 0Z" transform="translate(201.008 448) rotate(16)" fill="#9D796C"/>
<path fill-rule="evenodd" clip-rule="evenodd" d="M0.37321 0C0.37321 0 -0.376663 7.0909 0.380148 7.28011C1.13696 7.46931 2.84701 1.37125 2.84701 1.37125L0.37321 0Z" transform="translate(206.976 175.68) rotate(16)" fill="#9D796C"/>
<path fill-rule="evenodd" clip-rule="evenodd" d="M0.37321 0C0.37321 0 -0.376663 7.0909 0.380148 7.28011C1.13696 7.46931 2.84701 1.37125 2.84701 1.37125L0.37321 0Z" transform="translate(229 558.692) rotate(-71)" fill="#9D796C"/>
<path fill-rule="evenodd" clip-rule="evenodd" d="M0.37321 0C0.37321 0 -0.376663 7.0909 0.380148 7.28011C1.13696 7.46931 2.84701 1.37125 2.84701 1.37125L0.37321 0Z" transform="translate(208 315.628) rotate(-71)" fill="#9D796C"/>
<path fill-rule="evenodd" clip-rule="evenodd" d="M0.37321 0C0.37321 0 -0.376663 7.0909 0.380148 7.28011C1.13696 7.46931 2.84701 1.37125 2.84701 1.37125L0.37321 0Z" transform="translate(209 419.692) rotate(-71)" fill="#9D796C"/>
<path fill-rule="evenodd" clip-rule="evenodd" d="M0.37321 0C0.37321 0 -0.376663 7.0909 0.380148 7.28011C1.13696 7.46931 2.84701 1.37125 2.84701 1.37125L0.37321 0Z" transform="translate(214.968 147.372) rotate(-71)" fill="#9D796C"/>
<path fill-rule="evenodd" clip-rule="evenodd" d="M2.56812 0C2.56812 0 -0.6113 14.0498 0.14551 14.239C0.902321 14.4283 5.25412 0.671499 5.25412 0.671499L2.56812 0Z" transform="translate(215 529.516) rotate(-42)" fill="#9D796C"/>
<path fill-rule="evenodd" clip-rule="evenodd" d="M2.56812 0C2.56812 0 -0.6113 14.0498 0.14551 14.239C0.902321 14.4283 5.25412 0.671499 5.25412 0.671499L2.56812 0Z" transform="translate(195 390.516) rotate(-42)" fill="#9D796C"/>
<path fill-rule="evenodd" clip-rule="evenodd" d="M2.2019 0C2.2019 0 -0.524128 7.47283 0.12476 7.57346C0.773649 7.6741 4.50487 0.357157 4.50487 0.357157L2.2019 0Z" transform="translate(220 506.014) rotate(-42)" fill="#9D796C"/>
<path fill-rule="evenodd" clip-rule="evenodd" d="M2.2019 0C2.2019 0 -0.524128 7.47283 0.12476 7.57346C0.773649 7.6741 4.50487 0.357157 4.50487 0.357157L2.2019 0Z" transform="translate(200 367.014) rotate(-42)" fill="#9D796C"/>
<path fill-rule="evenodd" clip-rule="evenodd" d="M0 0H163.503V198.114H0V0Z" transform="translate(0.556152 167.994) rotate(-12)" fill="white"/>
<path d="M2 2H20V20H2V2Z" transform="translate(28.9302 202.931) rotate(-12)" stroke="#CD718E" stroke-width="4"/>
<path fill-rule="evenodd" clip-rule="evenodd" d="M0 0H83V22H0V0Z" transform="translate(66.0999 195.031) rotate(-12)" fill="#EFE2E2"/>
<path d="M2 2H20V20H2V2Z" transform="translate(36.8308 240.101) rotate(-12)" stroke="#CD718E" stroke-width="4"/>
<path fill-rule="evenodd" clip-rule="evenodd" d="M0 0H83V22H0V0Z" transform="translate(74.0005 232.2) rotate(-12)" fill="#EFE2E2"/>
<path d="M2 2H20V20H2V2Z" transform="translate(44.7314 277.271) rotate(-12)" stroke="#CD718E" stroke-width="4"/>
<path fill-rule="evenodd" clip-rule="evenodd" d="M0 0H83V22H0V0Z" transform="translate(81.9011 269.37) rotate(-12)" fill="#EFE2E2"/>
<path d="M2 2H20V20H2V2Z" transform="translate(52.6321 314.44) rotate(-12)" stroke="#CD718E" stroke-width="4"/>
<path fill-rule="evenodd" clip-rule="evenodd" d="M0 0H83V22H0V0Z" transform="translate(89.8018 306.54) rotate(-12)" fill="#EFE2E2"/>
<path fill-rule="evenodd" clip-rule="evenodd" d="M81.0803 0C81.0803 0 78.1856 124.589 77.2294 191.913C77.1768 195.615 72.2072 193.73 69.6823 202.875C67.1574 212.019 76.549 213.94 76.4823 217.539C74.4823 325.539 106.83 491.326 106.83 491.326C106.83 491.326 45.0326 539.458 29.0326 535.458C16.0505 536.138 4.52239 526.35 0.861672 532.929C-2.79905 539.507 5.24784 559.3 24.1719 551.652C33.2095 557.834 44.1719 563.652 67.1719 557.652C90.1719 551.652 107.96 546.877 116.96 550.877C125.96 554.877 136.172 559.652 151.172 551.652C166.172 543.652 160.535 522.506 143.172 496.652C125.809 470.799 115.518 341.852 115.518 255.852C115.518 169.852 133.271 2.27168 133.271 2.27168L81.0803 0Z" transform="translate(669.969 102.757) scale(-1 1) rotate(3)" fill="#E1B2A1"/>
<mask id="mask1" mask-type="alpha" maskUnits="userSpaceOnUse" x="537" y="107" width="162" height="559">
<path fill-rule="evenodd" clip-rule="evenodd" d="M81.0803 0C81.0803 0 78.1856 124.589 77.2294 191.913C77.1768 195.615 72.2072 193.73 69.6823 202.875C67.1574 212.019 76.549 213.94 76.4823 217.539C74.4823 325.539 106.83 491.326 106.83 491.326C106.83 491.326 45.0326 539.458 29.0326 535.458C16.0505 536.138 4.52239 526.35 0.861672 532.929C-2.79905 539.507 5.24784 559.3 24.1719 551.652C33.2095 557.834 44.1719 563.652 67.1719 557.652C90.1719 551.652 107.96 546.877 116.96 550.877C125.96 554.877 136.172 559.652 151.172 551.652C166.172 543.652 160.535 522.506 143.172 496.652C125.809 470.799 115.518 341.852 115.518 255.852C115.518 169.852 133.271 2.27168 133.271 2.27168L81.0803 0Z" transform="translate(669.969 102.757) scale(-1 1) rotate(3)" fill="white"/>
</mask>
<g mask="url(#mask1)">
<path fill-rule="evenodd" clip-rule="evenodd" d="M0 0H58C58 0 90 19 65 47C40 75 0 64 0 64V0Z" transform="translate(530 90)" fill="#CC9B8A"/>
<path fill-rule="evenodd" clip-rule="evenodd" d="M0.932641 29.1268C4.93264 39.1268 27.9326 52.1268 46.9326 52.1268C54.9326 57.1268 74.9326 65.1268 95.9326 54.1268C116.933 43.1268 134 29.1268 134 29.1268C134 29.1268 153 35.1268 161 29.1268C169 23.1268 166 4.12678 166 4.12678C166 4.12678 179.13 -0.723318 180 0.126779C192.761 12.5959 179.081 26.0062 195.933 29.1268C222.933 34.1268 211.933 63.1268 187.933 70.1268C163.933 77.1268 78.9326 87.1268 41.9326 77.1268C4.93264 67.1268 -3.06736 19.1268 0.932641 29.1268Z" transform="translate(708.702 596.873) scale(-1 1)" fill="#CC9B8A"/>
</g>
<path fill-rule="evenodd" clip-rule="evenodd" d="M2.29859 0C2.29859 0 -0.828455 12.7182 0.298591 13C1.42564 13.2818 6.29859 1 6.29859 1L2.29859 0Z" transform="translate(602.104 459.961) scale(-1 1) rotate(16)" fill="#9D796C"/>
<path fill-rule="evenodd" clip-rule="evenodd" d="M2.29859 0C2.29859 0 -0.828455 12.7182 0.298591 13C1.42564 13.2818 6.29859 1 6.29859 1L2.29859 0Z" transform="translate(597.976 192.5) scale(-1 1) rotate(16)" fill="#9D796C"/>
<path fill-rule="evenodd" clip-rule="evenodd" d="M2.29859 0C2.29859 0 -0.828455 12.7182 0.298591 13C1.42564 13.2818 6.29859 1 6.29859 1L2.29859 0Z" transform="translate(574.436 342.641) scale(-1 1) rotate(-36)" fill="#9D796C"/>
<path fill-rule="evenodd" clip-rule="evenodd" d="M2.55012 0C2.55012 0 -0.846232 15.8652 0.280814 16.147C1.40786 16.4287 6.55012 1 6.55012 1L2.55012 0Z" transform="translate(588.144 493.929) scale(-1 1) rotate(-4)" fill="#9D796C"/>
<path fill-rule="evenodd" clip-rule="evenodd" d="M2.55012 0C2.55012 0 -0.846232 15.8652 0.280814 16.147C1.40786 16.4287 6.55012 1 6.55012 1L2.55012 0Z" transform="translate(562.491 245.781) scale(-1 1) rotate(-41)" fill="#9D796C"/>
<path fill-rule="evenodd" clip-rule="evenodd" d="M2.55012 0C2.55012 0 -0.846232 15.8652 0.280814 16.147C1.40786 16.4287 6.55012 1 6.55012 1L2.55012 0Z" transform="translate(604.557 361.491) scale(-1 1) rotate(23)" fill="#9D796C"/>
<path fill-rule="evenodd" clip-rule="evenodd" d="M2.55012 0C2.55012 0 -0.846232 15.8652 0.280814 16.147C1.40786 16.4287 6.55012 1 6.55012 1L2.55012 0Z" transform="translate(567.026 578.995) scale(-1 1) rotate(-37)" fill="#9D796C"/>
<path fill-rule="evenodd" clip-rule="evenodd" d="M6.62341 0C6.62341 0 -0.981578 12.6037 0.145468 12.8855C1.27251 13.1673 11.4276 0.926221 11.4276 0.926221L6.62341 0Z" transform="translate(606.574 257.193) scale(-1 1) rotate(7)" fill="#9D796C"/>
<path fill-rule="evenodd" clip-rule="evenodd" d="M2.55012 0C2.55012 0 -0.846232 15.8652 0.280814 16.147C1.40786 16.4287 6.55012 1 6.55012 1L2.55012 0Z" transform="translate(577.281 438.938) scale(-1 1) rotate(-37)" fill="#9D796C"/>
<path fill-rule="evenodd" clip-rule="evenodd" d="M2.55012 0C2.55012 0 -0.846232 15.8652 0.280814 16.147C1.40786 16.4287 6.55012 1 6.55012 1L2.55012 0Z" transform="translate(552.332 167.698) scale(-1 1) rotate(-37)" fill="#9D796C"/>
<path fill-rule="evenodd" clip-rule="evenodd" d="M2.30994 0C2.30994 0 -0.829309 10.0701 0.297737 10.3519C1.42478 10.6336 6.30994 1 6.30994 1L2.30994 0Z" transform="translate(590.473 570.245) scale(-1 1) rotate(-7)" fill="#9D796C"/>
<path fill-rule="evenodd" clip-rule="evenodd" d="M2.30994 0C2.30994 0 -0.829309 10.0701 0.297737 10.3519C1.42478 10.6336 6.30994 1 6.30994 1L2.30994 0Z" transform="translate(574.248 223.532) scale(-1 1) rotate(-7)" fill="#9D796C"/>
<path fill-rule="evenodd" clip-rule="evenodd" d="M2.30994 0C2.30994 0 -0.829309 10.0701 0.297737 10.3519C1.42478 10.6336 6.30994 1 6.30994 1L2.30994 0Z" transform="translate(600.728 430.188) scale(-1 1) rotate(-7)" fill="#9D796C"/>
<path fill-rule="evenodd" clip-rule="evenodd" d="M1.67544 0C1.67544 0 -0.601513 7.30404 0.215954 7.50841C1.03342 7.71278 4.57672 0.725319 4.57672 0.725319L1.67544 0Z" transform="translate(582.458 169.017) scale(-1 1) rotate(31)" fill="#9D796C"/>
<path fill-rule="evenodd" clip-rule="evenodd" d="M1.90082 0C1.90082 0 -0.68243 8.2866 0.245005 8.51845C1.17244 8.75031 5.19238 0.82289 5.19238 0.82289L1.90082 0Z" transform="translate(592.448 547.848) scale(-1 1) rotate(28)" fill="#9D796C"/>
<path fill-rule="evenodd" clip-rule="evenodd" d="M1.90082 0C1.90082 0 -0.68243 8.2866 0.245005 8.51845C1.17244 8.75031 5.19238 0.82289 5.19238 0.82289L1.90082 0Z" transform="translate(571.05 278.406) scale(-1 1) rotate(-19)" fill="#9D796C"/>
<path fill-rule="evenodd" clip-rule="evenodd" d="M1.90082 0C1.90082 0 -0.68243 8.2866 0.245005 8.51845C1.17244 8.75031 5.19238 0.82289 5.19238 0.82289L1.90082 0Z" transform="translate(607.836 407.991) scale(-1 1) rotate(28)" fill="#9D796C"/>
<path fill-rule="evenodd" clip-rule="evenodd" d="M1.90082 0C1.90082 0 -0.68243 8.2866 0.245005 8.51845C1.17244 8.75031 5.19238 0.82289 5.19238 0.82289L1.90082 0Z" transform="translate(586.142 323.015) scale(-1 1) rotate(28)" fill="#9D796C"/>
<path fill-rule="evenodd" clip-rule="evenodd" d="M0 0.525467C0 0.525467 1.11844 10.5315 2.04587 10.7634C2.97331 10.9952 3.11831 0 3.11831 0L0 0.525467Z" transform="translate(594.407 283.439) scale(-1 1) rotate(11)" fill="#9D796C"/>
<path fill-rule="evenodd" clip-rule="evenodd" d="M1.90082 0C1.90082 0 -0.68243 8.2866 0.245005 8.51845C1.17244 8.75031 5.19238 0.82289 5.19238 0.82289L1.90082 0Z" transform="translate(591.433 234.152) scale(-1 1) rotate(28)" fill="#9D796C"/>
<path fill-rule="evenodd" clip-rule="evenodd" d="M3.24534 0C3.24534 0 -1.16513 11.0554 0.418304 11.3647C2.00174 11.6741 8.86512 1.09784 8.86512 1.09784L3.24534 0Z" transform="translate(594.83 149.099) scale(-1 1) rotate(28)" fill="#9D796C"/>
<path fill-rule="evenodd" clip-rule="evenodd" d="M1.7124 0C1.7124 0 -0.568244 10.6535 0.188566 10.8427C0.945377 11.0319 4.3984 0.671499 4.3984 0.671499L1.7124 0Z" transform="translate(599.296 524.173) scale(-1 1) rotate(20)" fill="#9D796C"/>
<path fill-rule="evenodd" clip-rule="evenodd" d="M1.7124 0C1.7124 0 -0.568244 10.6535 0.188566 10.8427C0.945377 11.0319 4.3984 0.671499 4.3984 0.671499L1.7124 0Z" transform="translate(608.938 315.131) scale(-1 1) rotate(20)" fill="#9D796C"/>
<path fill-rule="evenodd" clip-rule="evenodd" d="M1.7124 0C1.7124 0 -0.568244 10.6535 0.188566 10.8427C0.945377 11.0319 4.3984 0.671499 4.3984 0.671499L1.7124 0Z" transform="translate(580.609 472.198) scale(-1 1) rotate(-34)" fill="#9D796C"/>
<path fill-rule="evenodd" clip-rule="evenodd" d="M1.7124 0C1.7124 0 -0.568244 10.6535 0.188566 10.8427C0.945377 11.0319 4.3984 0.671499 4.3984 0.671499L1.7124 0Z" transform="translate(555.66 200.958) scale(-1 1) rotate(-34)" fill="#9D796C"/>
<path fill-rule="evenodd" clip-rule="evenodd" d="M0.37321 0C0.37321 0 -0.376663 7.0909 0.380148 7.28011C1.13696 7.46931 2.84701 1.37125 2.84701 1.37125L0.37321 0Z" transform="translate(580.98 593.849) scale(-1 1) rotate(20)" fill="#9D796C"/>
<path fill-rule="evenodd" clip-rule="evenodd" d="M0.37321 0C0.37321 0 -0.376663 7.0909 0.380148 7.28011C1.13696 7.46931 2.84701 1.37125 2.84701 1.37125L0.37321 0Z" transform="translate(585.861 447.062) scale(-1 1) rotate(20)" fill="#9D796C"/>
<path fill-rule="evenodd" clip-rule="evenodd" d="M0.37321 0C0.37321 0 -0.376663 7.0909 0.380148 7.28011C1.13696 7.46931 2.84701 1.37125 2.84701 1.37125L0.37321 0Z" transform="translate(560.911 175.822) scale(-1 1) rotate(20)" fill="#9D796C"/>
<path fill-rule="evenodd" clip-rule="evenodd" d="M0.37321 0C0.37321 0 -0.376663 7.0909 0.380148 7.28011C1.13696 7.46931 2.84701 1.37125 2.84701 1.37125L0.37321 0Z" transform="translate(566.658 559.437) scale(-1 1) rotate(-67)" fill="#9D796C"/>
<path fill-rule="evenodd" clip-rule="evenodd" d="M0.37321 0C0.37321 0 -0.376663 7.0909 0.380148 7.28011C1.13696 7.46931 2.84701 1.37125 2.84701 1.37125L0.37321 0Z" transform="translate(569.652 315.5) scale(-1 1) rotate(-67)" fill="#9D796C"/>
<path fill-rule="evenodd" clip-rule="evenodd" d="M0.37321 0C0.37321 0 -0.376663 7.0909 0.380148 7.28011C1.13696 7.46931 2.84701 1.37125 2.84701 1.37125L0.37321 0Z" transform="translate(572.914 415.381) scale(-1 1) rotate(-67)" fill="#9D796C"/>
<path fill-rule="evenodd" clip-rule="evenodd" d="M0.37321 0C0.37321 0 -0.376663 7.0909 0.380148 7.28011C1.13696 7.46931 2.84701 1.37125 2.84701 1.37125L0.37321 0Z" transform="translate(570.63 149.033) scale(-1 1) rotate(-38)" fill="#9D796C"/>
<path fill-rule="evenodd" clip-rule="evenodd" d="M2.56812 0C2.56812 0 -0.6113 14.0498 0.14551 14.239C0.902321 14.4283 5.25412 0.671499 5.25412 0.671499L2.56812 0Z" transform="translate(577.589 529.355) scale(-1 1) rotate(-38)" fill="#9D796C"/>
<path fill-rule="evenodd" clip-rule="evenodd" d="M2.56812 0C2.56812 0 -0.6113 14.0498 0.14551 14.239C0.902321 14.4283 5.25412 0.671499 5.25412 0.671499L2.56812 0Z" transform="translate(587.844 389.299) scale(-1 1) rotate(-38)" fill="#9D796C"/>
<path fill-rule="evenodd" clip-rule="evenodd" d="M2.2019 0C2.2019 0 -0.524128 7.47283 0.12476 7.57346C0.773649 7.6741 4.50487 0.357157 4.50487 0.357157L2.2019 0Z" transform="translate(570.962 506.26) scale(-1 1) rotate(-38)" fill="#9D796C"/>
<path fill-rule="evenodd" clip-rule="evenodd" d="M2.2019 0C2.2019 0 -0.524128 7.47283 0.12476 7.57346C0.773649 7.6741 4.50487 0.357157 4.50487 0.357157L2.2019 0Z" transform="translate(572.677 371.133) scale(-1 1) rotate(-38)" fill="#9D796C"/>
<path fill-rule="evenodd" clip-rule="evenodd" d="M64.6361 5.04059C42.9156 21.515 14.3515 157.517 10.3717 165.477C6.39182 173.437 -3.22307 180.445 1.08942 212.283C5.4019 244.122 20.3525 268.775 23.3374 265.79C26.3223 262.805 6.39182 224.179 10.3717 224.179C14.3515 224.179 28.1544 272.789 35.1192 276.769C42.0839 280.748 16.3414 220.2 20.3213 220.2C24.3011 220.2 39.0263 278.333 44.996 278.333C50.9658 278.333 26.291 213.235 29.2759 218.21C32.2608 223.185 47.3407 268.705 54.3055 270.695C61.2702 272.685 32.2608 211.245 36.2406 197.316C40.2205 183.386 49.5111 185.901 49.5111 185.901C49.5111 185.901 49.5111 185.901 56.4537 185.988C54.0385 176.494 39.2255 173.437 39.2255 165.477C39.2255 157.517 72.5981 34.9854 106.518 17.7488C106.518 17.7488 86.3567 -11.4338 64.6361 5.04059Z" transform="translate(40 -32.3369) rotate(-9)" fill="#E1B2A1"/>
<path fill-rule="evenodd" clip-rule="evenodd" d="M13 0L0 116C0 116 36.3962 127 67.4661 130C98.536 133 137.595 130 137.595 130C137.595 130 158.013 70.5 215.714 72.5C273.415 74.5 290.282 136 290.282 136C290.282 136 321.352 145 353.309 145C385.267 145 419 130 419 130L406 0H13Z" transform="translate(182)" fill="white"/>
<mask id="mask2" mask-type="alpha" maskUnits="userSpaceOnUse" x="182" y="0" width="419" height="145">
<path fill-rule="evenodd" clip-rule="evenodd" d="M13 0L0 116C0 116 36.3962 127 67.4661 130C98.536 133 137.595 130 137.595 130C137.595 130 158.013 70.5 215.714 72.5C273.415 74.5 290.282 136 290.282 136C290.282 136 321.352 145 353.309 145C385.267 145 419 130 419 130L406 0H13Z" transform="translate(182)" fill="white"/>
</mask>
<g mask="url(#mask2)">
<path fill-rule="evenodd" clip-rule="evenodd" d="M12.541 36C7.54097 36 -5.45903 5 2.54097 2C10.541 -1 12.541 8 12.541 8C12.541 8 20.541 -4 26.541 2C32.541 8 17.541 36 12.541 36Z" transform="translate(182 18)" fill="#FFB7CD"/>
<path fill-rule="evenodd" clip-rule="evenodd" d="M12.541 36C7.54097 36 -5.45903 5 2.54097 2C10.541 -1 12.541 8 12.541 8C12.541 8 20.541 -4 26.541 2C32.541 8 17.541 36 12.541 36Z" transform="translate(226 63)" fill="#FFB7CD"/>
<path fill-rule="evenodd" clip-rule="evenodd" d="M12.541 36C7.54097 36 -5.45903 5 2.54097 2C10.541 -1 12.541 8 12.541 8C12.541 8 20.541 -4 26.541 2C32.541 8 17.541 36 12.541 36Z" transform="translate(254)" fill="#FFB7CD"/>
<path fill-rule="evenodd" clip-rule="evenodd" d="M12.541 36C7.54097 36 -5.45903 5 2.54097 2C10.541 -1 12.541 8 12.541 8C12.541 8 20.541 -4 26.541 2C32.541 8 17.541 36 12.541 36Z" transform="translate(326 27)" fill="#FFB7CD"/>
<path fill-rule="evenodd" clip-rule="evenodd" d="M12.541 36C7.54097 36 -5.45903 5 2.54097 2C10.541 -1 12.541 8 12.541 8C12.541 8 20.541 -4 26.541 2C32.541 8 17.541 36 12.541 36Z" transform="translate(474 50)" fill="#FFB7CD"/>
<path fill-rule="evenodd" clip-rule="evenodd" d="M12.541 36C7.54097 36 -5.45903 5 2.54097 2C10.541 -1 12.541 8 12.541 8C12.541 8 20.541 -4 26.541 2C32.541 8 17.541 36 12.541 36Z" transform="translate(519 -18)" fill="#FFB7CD"/>
<path fill-rule="evenodd" clip-rule="evenodd" d="M12.541 36C7.54097 36 -5.45903 5 2.54097 2C10.541 -1 12.541 8 12.541 8C12.541 8 20.541 -4 26.541 2C32.541 8 17.541 36 12.541 36Z" transform="translate(597 26)" fill="#FFB7CD"/>
<path fill-rule="evenodd" clip-rule="evenodd" d="M8.0807 23.1964C4.85898 23.1964 -3.51749 3.22172 1.63726 1.28869C6.79201 -0.644344 8.0807 5.15475 8.0807 5.15475C8.0807 5.15475 13.2354 -2.57737 17.1015 1.28869C20.9676 5.15475 11.3024 23.1964 8.0807 23.1964Z" transform="translate(410 4)" fill="#FFB7CD"/>
<path fill-rule="evenodd" clip-rule="evenodd" d="M8.0807 23.1964C4.85898 23.1964 -3.51749 3.22172 1.63726 1.28869C6.79201 -0.644344 8.0807 5.15475 8.0807 5.15475C8.0807 5.15475 13.2354 -2.57737 17.1015 1.28869C20.9676 5.15475 11.3024 23.1964 8.0807 23.1964Z" transform="translate(479 121)" fill="#FFB7CD"/>
<path fill-rule="evenodd" clip-rule="evenodd" d="M8.0807 23.1964C4.85898 23.1964 -3.51749 3.22172 1.63726 1.28869C6.79201 -0.644344 8.0807 5.15475 8.0807 5.15475C8.0807 5.15475 13.2354 -2.57737 17.1015 1.28869C20.9676 5.15475 11.3024 23.1964 8.0807 23.1964Z" transform="translate(297 109)" fill="#FFB7CD"/>
<path fill-rule="evenodd" clip-rule="evenodd" d="M8.0807 23.1964C4.85898 23.1964 -3.51749 3.22172 1.63726 1.28869C6.79201 -0.644344 8.0807 5.15475 8.0807 5.15475C8.0807 5.15475 13.2354 -2.57737 17.1015 1.28869C20.9676 5.15475 11.3024 23.1964 8.0807 23.1964Z" transform="translate(547 97)" fill="#FFB7CD"/>
<path fill-rule="evenodd" clip-rule="evenodd" d="M84.5 195.443C140.557 195.443 201 172.443 201 102.443C201 53.9691 180.639 20.5291 147 4.44285C132.061 -2.70073 128.5 17.4429 100.5 17.4429C65.5 17.4429 65.9052 -3.25707 56 0.442854C18.2312 14.5508 0 51.939 0 97.4429C0 154.88 28.4431 195.443 84.5 195.443Z" transform="translate(300 41)" fill="black" fill-opacity="0.1"/>
</g>
<path fill-rule="evenodd" clip-rule="evenodd" d="M-4.33702e-05 4.50006C9.20752e-05 2.01471 2.01464 6.68348e-05 4.50001 -6.98114e-05L128.862 5.34975e-06C128.848 0.149321 128.841 0.300472 128.842 0.453277C128.842 3.20742 131.06 5.44001 133.797 5.44002C136.534 5.44001 138.752 3.20739 138.752 0.453244C138.752 0.30044 138.746 0.149199 138.732 -6.87957e-05L177.5 -1.96734e-05C179.985 4.83188e-05 182 2.01471 182 4.49997V63.5C182 65.9852 179.985 68 177.5 68L138.732 68C138.746 67.8507 138.752 67.6995 138.753 67.5466C138.752 64.7926 136.534 62.5601 133.797 62.56C131.06 62.5599 128.841 64.7927 128.842 67.5466C128.842 67.6995 128.848 67.8508 128.862 68L4.49991 68.0001C2.01473 68 3.55567e-05 65.9853 -5.53611e-05 63.5001L-4.33702e-05 4.50006Z" transform="translate(633.893 42.0106) rotate(22)" fill="#663244"/>
<path fill-rule="evenodd" clip-rule="evenodd" d="M6.58828e-05 4.49997C6.48826e-05 2.01473 2.01462 -7.5741e-06 4.49992 9.92074e-05L128.862 -5.40174e-05C128.857 0.0602565 128.852 0.120984 128.849 0.182008C128.844 0.271796 128.842 0.36229 128.842 0.453268C128.842 3.2074 131.06 5.43992 133.797 5.43996C136.534 5.43999 138.752 3.20739 138.752 0.453255C138.752 0.340979 138.749 0.22956 138.742 0.118991C138.739 0.0791927 138.736 0.0395159 138.732 -3.94984e-05L177.5 -1.78463e-06C179.985 -2.78479e-06 182 2.01483 182 4.50007L182 63.5C182 65.9852 179.985 68.0001 177.5 68L138.732 67.9999C138.745 67.8506 138.752 67.6994 138.752 67.5466C138.752 64.7926 136.534 62.5601 133.797 62.5599C131.06 62.56 128.842 64.7926 128.842 67.5466C128.841 67.6994 128.848 67.8507 128.862 68L4.50011 68C2.01466 68.0001 -2.58609e-05 65.9854 -8.41696e-05 63.5L6.58828e-05 4.49997Z" transform="translate(643.017 44.5511) rotate(28)" fill="#7F4156"/>
<path fill-rule="evenodd" clip-rule="evenodd" d="M5.76535 14.692C5.72494 14.7335 5.66721 14.8053 5.60155 14.8912C4.14175 14.8253 2.51815 14.8172 1.41194 14.7076C0.921978 14.6587 0.548912 14.7972 0.196772 15.1579L0.154919 15.2009C0.00915599 15.3512 -0.0731063 15.4986 0.0885318 15.6304L3.86105 17.9673C3.61715 18.6065 3.5219 19.1539 3.7557 19.3938C3.77374 19.4123 3.79394 19.4294 3.81487 19.4435C3.82858 19.4649 3.84517 19.4857 3.86321 19.5042C4.09701 19.7442 4.63027 19.6464 5.25301 19.3961L7.52966 23.2683C7.6581 23.4335 7.80242 23.3498 7.94746 23.2002C7.94746 23.2002 7.98932 23.1572 7.99004 23.1572C8.34146 22.7965 8.4764 22.4128 8.42877 21.9107C8.32197 20.7737 8.31404 19.1072 8.24981 17.6095C8.33352 17.5421 8.40351 17.4829 8.44392 17.4414L13.0073 12.7574L18.7909 22.1284C19.1409 22.5639 19.4743 22.3936 19.7961 22.0632L19.8885 21.9684C20.097 21.7544 20.1403 21.4085 19.9996 21.0818L17.3672 8.28218L21.7242 3.80996C22.1716 3.35 23.2273 1.07908 22.5201 0.353215C22.5021 0.334698 22.4833 0.317662 22.4639 0.301367C22.448 0.281369 22.4314 0.262111 22.4134 0.243595C21.7062 -0.48227 19.493 0.601342 19.0464 1.06056L14.6886 5.53278L2.21797 2.83078C1.90047 2.68635 1.5642 2.73079 1.35494 2.94485L1.26257 3.03965C0.94074 3.37 0.774051 3.71219 1.19907 4.07142L10.3287 10.008L5.76535 14.692Z" transform="translate(772.75 133.1) rotate(73)" fill="white"/>
<path fill-rule="evenodd" clip-rule="evenodd" d="M64.6361 5.04059C42.9156 21.515 14.3515 157.517 10.3717 165.477C6.39182 173.437 -3.22307 180.445 1.08942 212.283C5.4019 244.122 20.3525 268.775 23.3374 265.79C26.3223 262.805 6.39182 224.179 10.3717 224.179C14.3515 224.179 24.4855 266.318 36.3957 269.726C42.7692 271.55 33.033 259.57 26.6495 245.292C21.1041 232.889 18.4712 220.2 20.3213 220.2C24.3011 220.2 30.8661 262.792 46.8888 266.277C55.1259 268.069 44.9663 260.622 38.0424 245.741C31.4981 231.675 30.6419 215.721 32.7181 218.233C36.991 223.405 44.1661 258.929 56.932 260.879C63.2261 261.841 54.4011 251.967 48.3851 237.195C42.1992 222.006 39.1698 203.73 38.7122 195.297C37.8096 178.663 42.8322 168.688 42.8322 168.688C42.8322 168.688 45.5303 167.039 52.6504 162.316C43.5803 154.147 40.4323 161.808 40.4323 153.848C40.4323 145.888 72.5981 34.9854 106.518 17.7488C106.518 17.7488 86.3567 -11.4338 64.6361 5.04059Z" transform="translate(675.788 -117) scale(-1 1) rotate(13)" fill="#E1B2A1"/>
</svg>
